# xmcd
#
# Track frame offsets:
#	150
#	10016
#	22877
#	32497
#	47873
#	65877
#	79152
#	92629
#	103594
#	119325
#	134583
#	148783
#	165430
#
# Disc length: 2397 seconds
#
# Revision: 0
# Processed by: cddbd v1.5.1PL0 Copyright (c) Steve Scherf et al.
# Submitted via: audiograbber 1.81.03
#
DISCID=a9095b0d
DTITLE=Johnny Hooper - I Believe
DYEAR=1900
DGENRE=Instrumental
TTITLE0=From Russia With Love
TTITLE1=Petite Fleur
TTITLE2=I Believe
TTITLE3=Honky Tonk
TTITLE4=Manha de Carnival
TTITLE5=Girl from Ipanema
TTITLE6=Pennies from Heaven
TTITLE7=Deep Purple
TTITLE8=Unforgettable
TTITLE9=Can't Take my Eyes off you
TTITLE10=Natural Woman
TTITLE11=Danny Boy
TTITLE12=Christmas Song (Merry Christmas to you)
EXTD=
EXTT0=
EXTT1=
EXTT2=
EXTT3=
EXTT4=
EXTT5=
EXTT6=
EXTT7=
EXTT8=
EXTT9=
EXTT10=
EXTT11=
EXTT12=
PLAYORDER=
